<?xml version="1.0" encoding="utf-8"?>
<!-- Generator: Adobe Illustrator 16.0.0, SVG Export Plug-In . SVG Version: 6.00 Build 0)  -->
<!DOCTYPE svg PUBLIC "-//W3C//DTD SVG 1.1//EN" "http://www.w3.org/Graphics/SVG/1.1/DTD/svg11.dtd">
<svg version="1.1" id="Layer_1" xmlns="http://www.w3.org/2000/svg" xmlns:xlink="http://www.w3.org/1999/xlink" x="0px" y="0px"
	 width="100px" height="100px" viewBox="0 0 100 100" enable-background="new 0 0 100 100" xml:space="preserve">
<path fill="#FFFFFF" d="M6.25,18.75c0-3.457,2.793-6.25,6.25-6.25h75c3.457,0,6.25,2.793,6.25,6.25S90.957,25,87.5,25h-75
	C9.043,25,6.25,22.207,6.25,18.75z M6.25,50c0-3.457,2.793-6.25,6.25-6.25h75c3.457,0,6.25,2.793,6.25,6.25s-2.793,6.25-6.25,6.25
	h-75C9.043,56.25,6.25,53.457,6.25,50z M93.75,81.25c0,3.457-2.793,6.25-6.25,6.25h-75c-3.457,0-6.25-2.793-6.25-6.25
	S9.043,75,12.5,75h75C90.957,75,93.75,77.793,93.75,81.25z"/>
</svg>
