<?xml version="1.0" encoding="utf-8"?>
<!-- Generator: Adobe Illustrator 16.0.0, SVG Export Plug-In . SVG Version: 6.00 Build 0)  -->
<!DOCTYPE svg PUBLIC "-//W3C//DTD SVG 1.1//EN" "http://www.w3.org/Graphics/SVG/1.1/DTD/svg11.dtd">
<svg version="1.1" id="Layer_1" xmlns="http://www.w3.org/2000/svg" xmlns:xlink="http://www.w3.org/1999/xlink" x="0px" y="0px"
	 width="100px" height="70px" viewBox="0 0 100 70" enable-background="new 0 0 100 70" xml:space="preserve">
<g>
	<path fill="#ADD297" d="M96.046,32.738c-3.499-9.79-11.218-13.186-20.784-15.486c-0.398-0.095-0.795-0.177-1.188-0.269
		c0.093-2.656-0.576-5.291-2.165-7.756c-1.956-3.035-4.921-5.979-8.642-6.629c-7.455-1.303-13.77,2.854-16.218,9.889
		c-0.163,0.467-0.277,0.937-0.364,1.405c-0.81,0.019-1.62,0.028-2.428,0.07c-1.105-6.08-5.51-11.274-12.841-11.253
		C25.758,2.728,20.384,7.093,19.56,12.775c-0.33,2.271-0.37,4.472-0.143,6.676c-0.534,0.221-1.07,0.424-1.603,0.66
		c-16.64,7.376-20.636,29.227-1.838,36.336c0.548,0.207,1.108,0.381,1.677,0.539c-0.323,3.615,1.833,7.498,6.521,7.498
		c4.129,0,6.288-3.019,6.53-6.207c1.885,0.43,3.891,0.582,5.918,0.58c-0.481,3.703,1.673,7.813,6.496,7.813
		c5.288,0,7.364-4.938,6.275-8.863c1.396-0.134,2.791-0.274,4.187-0.396c0.641-0.019,1.275-0.058,1.913-0.082
		c-0.05,3.438,2.135,6.914,6.567,6.914c5.004,0,7.142-4.425,6.438-8.226c1.264-0.226,2.527-0.459,3.793-0.756
		c0.212-0.05,0.41-0.117,0.618-0.175c0.767-0.151,1.522-0.348,2.286-0.522c0.695,2.623,2.775,4.819,6.297,4.819
		c5.552,0,7.574-5.442,6.099-9.442C93.59,46.217,98.672,40.077,96.046,32.738z"/>
	<g>
		<path fill="#FFFFFF" d="M31.137,7.331c-8.771,0-8.771,13.601,0,13.601S39.908,7.331,31.137,7.331z"/>
		<path fill="#1D1D1B" d="M33.566,12.189h-4.857c-2.506,0-2.506,3.886,0,3.886h4.857C36.071,16.075,36.071,12.189,33.566,12.189z"/>
	</g>
	<g>
		<path fill="#FFFFFF" d="M59.146,7.331c-8.771,0-8.771,13.601,0,13.601S67.917,7.331,59.146,7.331z"/>
		<path fill="#1D1D1B" d="M61.576,12.189h-4.857c-2.505,0-2.505,3.886,0,3.886h4.857C64.081,16.075,64.081,12.189,61.576,12.189z"/>
	</g>
	<path fill="#FFFFFF" d="M71.223,27.271c-5.131,2.004-10.104,3.264-15.656,2.4c-3.617-0.563-7.012-2.321-10.708-2.518
		c-3.624-0.191-6.703,0.588-10.161,1.628c-4.955,1.496-9.723,0.59-14.749,0.235c-1.378-0.099-1.369,2.043,0,2.141
		c3.858,0.273,8.219,1.339,12.059,0.497c5.688-1.25,10.146-3.07,16.136-1.736c3.665,0.818,7.042,2.015,10.823,2.25
		c4.401,0.275,8.809-1.262,12.826-2.833C73.063,28.839,72.512,26.767,71.223,27.271z"/>
</g>
</svg>
