<?xml version="1.0" encoding="utf-8"?>
<!-- Generator: Adobe Illustrator 16.0.0, SVG Export Plug-In . SVG Version: 6.00 Build 0)  -->
<!DOCTYPE svg PUBLIC "-//W3C//DTD SVG 1.1//EN" "http://www.w3.org/Graphics/SVG/1.1/DTD/svg11.dtd">
<svg version="1.1" id="Layer_1" xmlns="http://www.w3.org/2000/svg" xmlns:xlink="http://www.w3.org/1999/xlink" x="0px" y="0px"
	 width="100px" height="70px" viewBox="0 0 100 70" enable-background="new 0 0 100 70" xml:space="preserve">
<g>
	<path fill="#ADD297" d="M96.046-65.104c-3.499-9.79-11.218-13.186-20.784-15.486c-0.398-0.095-0.795-0.177-1.188-0.269
		c0.093-2.656-0.576-5.291-2.165-7.756c-1.956-3.035-4.92-5.979-8.641-6.629c-7.455-1.303-13.77,2.854-16.218,9.889
		c-0.163,0.467-0.277,0.937-0.364,1.405c-0.81,0.019-1.62,0.028-2.428,0.07c-1.105-6.08-5.51-11.274-12.841-11.253
		c-5.659,0.017-11.033,4.382-11.857,10.065c-0.33,2.271-0.37,4.472-0.143,6.676c-0.534,0.221-1.07,0.424-1.603,0.66
		c-16.64,7.376-20.636,29.227-1.838,36.336c0.548,0.207,1.108,0.381,1.677,0.539c-0.323,3.616,1.833,7.498,6.521,7.498
		c4.129,0,6.288-3.017,6.53-6.206c1.885,0.429,3.891,0.582,5.918,0.58c-0.481,3.702,1.673,7.812,6.496,7.812
		c5.288,0,7.364-4.938,6.275-8.864c1.396-0.133,2.791-0.275,4.187-0.396c0.641-0.018,1.275-0.057,1.913-0.082
		c-0.05,3.438,2.135,6.914,6.567,6.914c5.004,0,7.142-4.423,6.438-8.225c1.264-0.225,2.527-0.458,3.793-0.756
		c0.212-0.049,0.41-0.117,0.618-0.174c0.767-0.152,1.522-0.348,2.286-0.522c0.695,2.623,2.775,4.819,6.297,4.819
		c5.552,0,7.574-5.443,6.099-9.443C93.59-51.626,98.672-57.766,96.046-65.104z"/>
	<g>
		<path fill="#FFFFFF" d="M31.137-90.512c-8.771,0-8.771,13.601,0,13.601S39.908-90.512,31.137-90.512z"/>
		<path d="M33.566-85.654h-4.857c-2.506,0-2.506,3.886,0,3.886h4.857C36.071-81.768,36.071-85.654,33.566-85.654z"/>
	</g>
	<g>
		<path fill="#FFFFFF" d="M59.146-90.512c-8.77,0-8.77,13.601,0,13.601C67.917-76.911,67.917-90.512,59.146-90.512z"/>
		<path d="M61.576-85.654h-4.857c-2.505,0-2.505,3.886,0,3.886h4.857C64.081-81.768,64.081-85.654,61.576-85.654z"/>
	</g>
	<path d="M71.223-70.571c-5.131,2.004-10.104,3.264-15.656,2.4c-3.618-0.563-7.013-2.321-10.708-2.518
		c-3.624-0.191-6.703,0.588-10.161,1.628c-4.955,1.496-9.723,0.59-14.749,0.235c-1.378-0.099-1.369,2.043,0,2.141
		c3.858,0.273,8.219,1.339,12.059,0.497c5.688-1.25,10.146-3.07,16.136-1.736c3.664,0.818,7.042,2.015,10.823,2.25
		c4.401,0.275,8.808-1.262,12.826-2.833C73.063-69.004,72.512-71.076,71.223-70.571z"/>
</g>
<g>
	<path d="M96.046,32.737c-3.499-9.788-11.218-13.185-20.784-15.484c-0.398-0.095-0.795-0.179-1.188-0.27
		c0.093-2.656-0.576-5.29-2.165-7.757c-1.956-3.034-4.92-5.977-8.641-6.629c-7.455-1.302-13.77,2.854-16.218,9.889
		c-0.163,0.467-0.277,0.938-0.364,1.406c-0.81,0.019-1.62,0.028-2.428,0.07C43.153,7.883,38.748,2.688,31.417,2.71
		C25.758,2.727,20.384,7.092,19.56,12.775c-0.33,2.269-0.37,4.472-0.143,6.675c-0.534,0.222-1.07,0.425-1.603,0.66
		c-16.64,7.377-20.636,29.228-1.838,36.337c0.548,0.207,1.108,0.382,1.677,0.539c-0.323,3.615,1.833,7.498,6.521,7.498
		c4.129,0,6.288-3.018,6.53-6.207c1.885,0.43,3.891,0.584,5.918,0.582c-0.481,3.701,1.673,7.812,6.496,7.812
		c5.288,0,7.364-4.938,6.275-8.864c1.396-0.134,2.791-0.274,4.187-0.396c0.641-0.018,1.275-0.057,1.913-0.081
		c-0.05,3.438,2.135,6.914,6.567,6.914c5.004,0,7.142-4.423,6.438-8.226c1.264-0.225,2.527-0.457,3.793-0.756
		c0.212-0.05,0.41-0.117,0.618-0.175c0.767-0.151,1.522-0.347,2.286-0.521c0.695,2.621,2.775,4.818,6.297,4.818
		c5.552,0,7.574-5.443,6.099-9.443C93.59,46.217,98.672,40.077,96.046,32.737z"/>
	<g>
		<path fill="#FFFFFF" d="M31.137,7.329c-8.771,0-8.771,13.601,0,13.601S39.908,7.329,31.137,7.329z"/>
		<path d="M33.566,12.188h-4.857c-2.506,0-2.506,3.886,0,3.886h4.857C36.071,16.074,36.071,12.188,33.566,12.188z"/>
	</g>
	<g>
		<path fill="#FFFFFF" d="M59.146,7.329c-8.77,0-8.77,13.601,0,13.601C67.917,20.93,67.917,7.329,59.146,7.329z"/>
		<path d="M61.576,12.188h-4.857c-2.505,0-2.505,3.886,0,3.886h4.857C64.081,16.074,64.081,12.188,61.576,12.188z"/>
	</g>
	<path fill="#FFFFFF" d="M71.223,27.271c-5.131,2.003-10.104,3.263-15.656,2.399c-3.618-0.563-7.013-2.32-10.708-2.518
		c-3.624-0.191-6.703,0.588-10.161,1.628c-4.955,1.495-9.723,0.59-14.749,0.235c-1.378-0.099-1.369,2.044,0,2.141
		c3.858,0.273,8.219,1.339,12.059,0.497c5.688-1.251,10.146-3.07,16.136-1.736c3.664,0.817,7.042,2.015,10.823,2.25
		c4.401,0.275,8.808-1.262,12.826-2.832C73.063,28.838,72.512,26.767,71.223,27.271z"/>
</g>
</svg>
