<?xml version="1.0" encoding="utf-8"?>
<!-- Generator: Adobe Illustrator 16.0.0, SVG Export Plug-In . SVG Version: 6.00 Build 0)  -->
<!DOCTYPE svg PUBLIC "-//W3C//DTD SVG 1.1//EN" "http://www.w3.org/Graphics/SVG/1.1/DTD/svg11.dtd">
<svg version="1.1" id="Layer_1" xmlns="http://www.w3.org/2000/svg" xmlns:xlink="http://www.w3.org/1999/xlink" x="0px" y="0px"
	 width="100px" height="100px" viewBox="0 0 100 100" enable-background="new 0 0 100 100" xml:space="preserve">
<g>
	<path fill="#FFFFFF" d="M19.064,19.064c2.445-2.444,6.395-2.444,8.839,0l53.033,53.033c2.445,2.445,2.445,6.395,0,8.839
		c-2.444,2.445-6.394,2.445-8.839,0L19.064,27.903C16.62,25.458,16.62,21.509,19.064,19.064z"/>
	<path fill="#FFFFFF" d="M19.064,19.064c2.445-2.444,6.395-2.444,8.839,0l53.033,53.033c2.445,2.445,2.445,6.395,0,8.839
		c-2.444,2.445-6.394,2.445-8.839,0L19.064,27.903C16.62,25.458,16.62,21.509,19.064,19.064z"/>
	<path fill="#FFFFFF" d="M80.936,27.903L27.903,80.936c-2.445,2.445-6.395,2.445-8.839,0c-2.445-2.444-2.445-6.394,0-8.839
		l53.033-53.033c2.443-2.444,6.394-2.444,8.838,0C83.381,21.509,83.381,25.458,80.936,27.903z"/>
</g>
</svg>
